<svg id="Group_69" data-name="Group 69" xmlns="http://www.w3.org/2000/svg" width="33" height="33" viewBox="0 0 33 33">
  <circle id="Ellipse_10" data-name="Ellipse 10" cx="16.5" cy="16.5" r="16.5" fill="#e5000e" opacity="0.08"/>
  <g id="_001-home" data-name="001-home" transform="translate(10.018 10.018)">
    <ellipse id="Ellipse_8" data-name="Ellipse 8" cx="0.5" cy="1" rx="0.5" ry="1" transform="translate(5.982 1.982)" fill="#e5000e"/>
    <path id="Path_24" data-name="Path 24" d="M97.5.374A.374.374,0,0,0,97.122,0h-.748A.374.374,0,0,0,96,.374V2.129l1.5-1.2Z" transform="translate(-93.606)" fill="#e5000e"/>
    <g id="Group_67" data-name="Group 67" transform="translate(0 0)">
      <g id="Group_66" data-name="Group 66" transform="translate(1.022)">
        <path id="Path_25" data-name="Path 25" d="M221,250v1.582a2.435,2.435,0,0,1,1.746,0V250Z" transform="translate(-216.511 -243.766)" fill="#e5000e"/>
        <path id="Path_26" data-name="Path 26" d="M44.726,8.093l.013.009V5.861a.374.374,0,0,1,.374-.374h2.494a.374.374,0,0,1,.374.374V8.1l.009-.006a2.284,2.284,0,0,1,1.372-.437,2.231,2.231,0,0,1,1.112.276V4.146l.639.511a.374.374,0,1,0,.467-.584L46.594.083a.374.374,0,0,0-.467,0L41.14,4.073a.374.374,0,1,0,.467.584l.639-.511V7.93a2.229,2.229,0,0,1,1.109-.274,2.282,2.282,0,0,1,1.372.437ZM46.361,2a1.122,1.122,0,1,1-1.122,1.122A1.123,1.123,0,0,1,46.361,2Z" transform="translate(-40.999 -0.001)" fill="#e5000e"/>
      </g>
      <path id="Path_27" data-name="Path 27" d="M12.394,337a1.551,1.551,0,0,0-.959.312.888.888,0,0,1-1.09,0,1.629,1.629,0,0,0-1.917,0,.885.885,0,0,1-1.088,0,1.627,1.627,0,0,0-1.916,0,.885.885,0,0,1-1.088,0A1.548,1.548,0,0,0,3.378,337a1.548,1.548,0,0,0-.958.312.829.829,0,0,1-.544.187.829.829,0,0,1-.544-.187A1.549,1.549,0,0,0,.374,337a.374.374,0,0,0-.374.374v1.185H.374a1.548,1.548,0,0,1,.958.312.829.829,0,0,0,.544.187.829.829,0,0,0,.544-.187,1.548,1.548,0,0,1,.958-.312,1.548,1.548,0,0,1,.958.312.885.885,0,0,0,1.088,0,1.627,1.627,0,0,1,1.916,0,.885.885,0,0,0,1.088,0,1.629,1.629,0,0,1,1.917,0,.888.888,0,0,0,1.09,0,1.551,1.551,0,0,1,.959-.312h.374v-1.185A.374.374,0,0,0,12.394,337Z" transform="translate(0 -328.596)" fill="#e5000e"/>
      <path id="Path_28" data-name="Path 28" d="M12.394,429.5a.831.831,0,0,0-.545.187,1.63,1.63,0,0,1-1.917,0,.887.887,0,0,0-1.09,0,1.628,1.628,0,0,1-1.916,0,.885.885,0,0,0-1.088,0A1.55,1.55,0,0,1,4.88,430a1.549,1.549,0,0,1-.958-.312.829.829,0,0,0-.544-.187.829.829,0,0,0-.544.187,1.549,1.549,0,0,1-.958.312,1.549,1.549,0,0,1-.958-.312.829.829,0,0,0-.544-.187H0v1.185a.374.374,0,0,0,.374.374.829.829,0,0,1,.544.187,1.549,1.549,0,0,0,.958.312,1.549,1.549,0,0,0,.958-.312.829.829,0,0,1,.544-.187.829.829,0,0,1,.544.187,1.549,1.549,0,0,0,.958.312,1.549,1.549,0,0,0,.958-.312.886.886,0,0,1,1.088,0,1.627,1.627,0,0,0,1.916,0,.887.887,0,0,1,1.09,0,1.63,1.63,0,0,0,1.917,0,.831.831,0,0,1,.545-.187.374.374,0,0,0,.374-.374V429.5Z" transform="translate(0 -418.789)" fill="#e5000e"/>
    </g>
  </g>
</svg>
