<svg xmlns="http://www.w3.org/2000/svg" width="32" height="33" viewBox="0 0 32 33">
  <g id="Group_70" data-name="Group 70" transform="translate(-0.273)">
    <ellipse id="Ellipse_11" data-name="Ellipse 11" cx="16" cy="16.5" rx="16" ry="16.5" transform="translate(0.273)" fill="#e5000e" opacity="0.08"/>
    <g id="_002-lock" data-name="002-lock" transform="translate(11.691 10.734)">
      <g id="Group_68" data-name="Group 68" transform="translate(0)">
        <path id="Path_29" data-name="Path 29" d="M72.646,4.447H71.9V3.458a3.458,3.458,0,0,0-6.917,0v.988h-.741A.247.247,0,0,0,64,4.694v6.176a.989.989,0,0,0,.988.988H71.9a.989.989,0,0,0,.988-.988V4.694A.247.247,0,0,0,72.646,4.447Zm-3.46,5.16a.247.247,0,0,1-.246.274h-.988a.247.247,0,0,1-.246-.274l.156-1.4a.977.977,0,0,1-.4-.795.988.988,0,0,1,1.976,0,.977.977,0,0,1-.4.795Zm1.237-5.16H66.47V3.458a1.976,1.976,0,0,1,3.952,0Z" transform="translate(-64)" fill="#e5000e"/>
      </g>
    </g>
  </g>
</svg>
