<svg xmlns="http://www.w3.org/2000/svg" width="33" height="33" viewBox="0 0 33 33">
  <g id="Group_71" data-name="Group 71" transform="translate(0.29)">
    <circle id="Ellipse_12" data-name="Ellipse 12" cx="16.5" cy="16.5" r="16.5" transform="translate(-0.29)" fill="#e5000e" opacity="0.08"/>
    <g id="_003-insurance-agent" data-name="003-insurance-agent" transform="translate(10.949 10.734)">
      <g id="XMLID_855_" transform="translate(0 0)">
        <ellipse id="XMLID_932_" cx="0.932" cy="0.932" rx="0.932" ry="0.932" transform="translate(1.622)" fill="#e5000e"/>
        <path id="XMLID_951_" d="M85.015,235.3s0,4.257,0,4.8a.54.54,0,1,0,1.08,0v-4.194a.121.121,0,0,1,.121-.121.112.112,0,0,1,.112.112v4.2a.54.54,0,1,0,1.08,0l-.01-5C86.026,235.835,86.263,235.826,85.015,235.3Z" transform="translate(-83.663 -229.312)" fill="#e5000e"/>
        <path id="XMLID_973_" d="M190.6,209.4l-.661.353,0,.849a.45.45,0,0,0,.45.448h0a.45.45,0,0,0,.448-.452l-.007-1.375A.963.963,0,0,1,190.6,209.4Z" transform="translate(-186.003 -204.068)" fill="#e5000e"/>
        <path id="XMLID_1096_" d="M251.473,1.865a.932.932,0,1,0-.932-.933A.933.933,0,0,0,251.473,1.865Z" transform="translate(-245.112 0)" fill="#e5000e"/>
        <path id="XMLID_1100_" d="M292.893,401.325v.907a.54.54,0,1,0,1.08,0v-.841h-.782A.712.712,0,0,1,292.893,401.325Z" transform="translate(-286.422 -391.442)" fill="#e5000e"/>
        <path id="XMLID_1107_" d="M39.953,92.991a.224.224,0,0,0-.224-.224h-.492v-.575a.262.262,0,0,0-.262-.262h-.224l-.015-3.069A1.067,1.067,0,0,0,37.671,87.8H34.924a.45.45,0,0,0-.423.3L33.885,89.8l-1.377.735-1.41-.59.358-1.248h0v.842l1.023.428.988-.528c.056-.154.578-1.595.6-1.642h-2.95a.45.45,0,0,0-.432.326l-.562,1.959a.451.451,0,0,0,.258.539h0l1.97.824a.47.47,0,0,0,.394-.017h0l1.714-.915a.457.457,0,0,0,.211-.244c.082-.228.59-1.567.591-1.571,0,.113,0,7.728,0,7.728a.54.54,0,1,0,1.08,0V95.352a.713.713,0,0,1-.185-.48V92.991a.713.713,0,0,1,.185-.48v-.28a.117.117,0,0,1,.117-.117.116.116,0,0,1,.116.116v.11a.71.71,0,0,1,.266-.064v-.083a.787.787,0,0,1,.8-.786V88.868a.094.094,0,0,1,.188,0l.015,3.064h-.222a.262.262,0,0,0-.262.262v.082h0v.493h-.492a.224.224,0,0,0-.224.224v1.881a.224.224,0,0,0,.224.224h2.854a.224.224,0,0,0,.224-.224V92.991Z" transform="translate(-30.106 -85.64)" fill="#e5000e"/>
      </g>
    </g>
  </g>
</svg>
