<svg xmlns="http://www.w3.org/2000/svg" width="32" height="33" viewBox="0 0 32 33">
  <g id="Group_73" data-name="Group 73" transform="translate(-0.42)">
    <ellipse id="Ellipse_14" data-name="Ellipse 14" cx="16" cy="16.5" rx="16" ry="16.5" transform="translate(0.42)" fill="#e5000e" opacity="0.08"/>
    <g id="_006-toxic" data-name="006-toxic" transform="translate(10.249 9.973)">
      <ellipse id="Ellipse_9" data-name="Ellipse 9" cx="1.675" cy="1.675" rx="1.675" ry="1.675" transform="translate(5.016 5.025)" fill="#e5000e"/>
      <path id="Path_40" data-name="Path 40" d="M49.949,3.954a.558.558,0,0,0,.75.249,2.79,2.79,0,0,1,2.5,0,.558.558,0,0,0,.75-.249l1.249-2.5a.558.558,0,0,0-.249-.749,6.711,6.711,0,0,0-5.995,0,.558.558,0,0,0-.249.749Z" transform="translate(-45.256 0)" fill="#e5000e"/>
      <path id="Path_41" data-name="Path 41" d="M5.294,93.563A2.79,2.79,0,0,1,4.046,91.4a.558.558,0,0,0-.591-.525l-2.788.168a.558.558,0,0,0-.524.59,6.711,6.711,0,0,0,3,5.192.558.558,0,0,0,.773-.159l1.539-2.331a.558.558,0,0,0-.159-.774Z" transform="translate(-0.142 -84.533)" fill="#e5000e"/>
      <path id="Path_42" data-name="Path 42" d="M119.324,91.042l-2.788-.168a.558.558,0,0,0-.591.525,2.79,2.79,0,0,1-1.248,2.161.558.558,0,0,0-.159.774l1.539,2.331a.558.558,0,0,0,.773.158,6.711,6.711,0,0,0,3-5.192A.558.558,0,0,0,119.324,91.042Z" transform="translate(-106.468 -84.531)" fill="#e5000e"/>
    </g>
  </g>
</svg>
