<svg xmlns="http://www.w3.org/2000/svg" width="32" height="33" viewBox="0 0 32 33">
  <g id="Group_75" data-name="Group 75" transform="translate(-0.13)">
    <ellipse id="Ellipse_16" data-name="Ellipse 16" cx="16" cy="16.5" rx="16" ry="16.5" transform="translate(0.13)" fill="#e5000e" opacity="0.08"/>
    <g id="_004-owner" data-name="004-owner" transform="translate(10.398 10.734)">
      <path id="Path_30" data-name="Path 30" d="M6.393,332.29a1.054,1.054,0,0,1,.114-1.487l.8-.684A3.156,3.156,0,0,0,6.444,330H6.327v.234a1.523,1.523,0,1,1-3.046,0V330H3.163A3.167,3.167,0,0,0,0,333.163v.75a.352.352,0,0,0,.351.352H1.875v-1.57a.351.351,0,0,1,.7,0v1.57H6.725v-1.717A1.053,1.053,0,0,1,6.393,332.29Z" transform="translate(0 -322.267)" fill="#e5000e"/>
      <path id="Path_31" data-name="Path 31" d="M297.033,303.993l-2.226-1.908a.352.352,0,0,0-.458,0l-2.226,1.908a.351.351,0,0,0,.457.534l.006,0v2.4h1.64v-1.279a.358.358,0,0,1,.334-.361.352.352,0,0,1,.368.351v1.289h1.289a.352.352,0,0,0,.352-.352v-2.048l.006,0a.352.352,0,0,0,.458-.534Zm-2.221.585h-.469a.351.351,0,1,1,0-.7h.469a.351.351,0,1,1,0,.7Z" transform="translate(-285.158 -294.924)" fill="#e5000e"/>
      <path id="Path_32" data-name="Path 32" d="M61.924,2.146a.7.7,0,0,1,1.258,0,.987.987,0,0,0,.888.549h1.9a3.515,3.515,0,0,0-6.836,0h1.9A.987.987,0,0,0,61.924,2.146Z" transform="translate(-57.749)" fill="#e5000e"/>
      <path id="Path_33" data-name="Path 33" d="M104.921,107.226v-1.289h-.944A1.7,1.7,0,0,1,102.46,105a1.7,1.7,0,0,1-1.517.937H100v1.289a2.46,2.46,0,1,0,4.921,0Zm-1.626,1.177a1.179,1.179,0,0,1-1.669,0,.351.351,0,0,1,.5-.5.477.477,0,0,0,.675,0,.351.351,0,1,1,.5.5Z" transform="translate(-97.657 -102.54)" fill="#e5000e"/>
      <path id="Path_34" data-name="Path 34" d="M340,146.406A.7.7,0,1,0,340,145Z" transform="translate(-332.033 -141.602)" fill="#e5000e"/>
      <path id="Path_35" data-name="Path 35" d="M40.7,146.406V145a.7.7,0,1,0,0,1.406Z" transform="translate(-39.063 -141.602)" fill="#e5000e"/>
      <path id="Path_36" data-name="Path 36" d="M170,330.39v.225a.82.82,0,0,0,1.64,0v-.225a3.167,3.167,0,0,1-1.64,0Z" transform="translate(-166.016 -322.648)" fill="#e5000e"/>
    </g>
  </g>
</svg>
