<?xml version="1.0" encoding="UTF-8" standalone="no"?><!DOCTYPE svg PUBLIC "-//W3C//DTD SVG 1.1//EN" "http://www.w3.org/Graphics/SVG/1.1/DTD/svg11.dtd"><svg width="100%" height="100%" viewBox="0 0 60 60" version="1.1" xmlns="http://www.w3.org/2000/svg" xmlns:xlink="http://www.w3.org/1999/xlink" xml:space="preserve" xmlns:serif="http://www.serif.com/" style="fill-rule:evenodd;clip-rule:evenodd;stroke-linecap:round;stroke-linejoin:round;"><rect id="icon-chat--md--colour" x="0" y="0" width="60" height="60" style="fill:none;"/><g id="icon-chat--md--colour1" serif:id="icon-chat--md--colour"><path d="M53.727,39.418c0,0 0.297,5.932 -0.424,8.053c-0.722,2.121 -16.357,1.544 -19.928,1.673c-5.653,0.204 -11.802,6.842 -15.546,6.633c-3.284,-0.185 -0.276,-6.444 -5.049,-6.633c-1.715,-0.068 -5.674,-2.997 -5.38,-5.06c0.294,-2.064 2.122,-2.229 3.361,-1.776c2.006,0.736 4.984,1.058 6.261,1.175c5.63,0.516 21.457,-0.157 25.516,-0.437c6.047,-0.416 8.734,-5.122 11.189,-3.628Z" style="fill:#feef7c;"/><path d="M8.25,10.81c-0.039,1.417 -3.197,5.167 3.879,4.758c2.124,-0.123 10.21,-0.968 17.578,-1.965c12.264,-1.659 19.347,-1.22 22.197,0.284c1.561,0.824 0.338,2.982 1.714,-2.4c0.327,-1.278 -0.538,-1.85 -1.629,-2.821c-1.853,-1.648 -11.602,-1.645 -13.987,-1.818c-3.884,-0.281 -9.586,-0.207 -12.133,-0.18c-2.547,0.027 -17.541,1.28 -17.619,4.142Z" style="fill:#5cd3cb;"/><path d="M49.55,46.5l-20.65,0l-11.8,9l0,-9l-5.9,0c-1.628,0 -2.95,-1.344 -2.95,-3l0,-30c0,-1.656 1.322,-3 2.95,-3l38.35,0c1.628,0 2.95,1.344 2.95,3l0,30c0,1.656 -1.322,3 -2.95,3Z" style="fill:none;fill-rule:nonzero;stroke:#000;stroke-width:1.5px;"/><path d="M39.06,17.625c2.424,0 4.387,1.964 4.387,4.388c0,2.423 -1.963,4.387 -4.387,4.387c-2.424,0 -4.388,-1.964 -4.388,-4.387c0,-2.424 1.964,-4.388 4.388,-4.388Z" style="fill:none;fill-rule:nonzero;stroke:#000;stroke-width:1.5px;"/><path d="M46.659,32.25c-2.424,-4.196 -7.792,-5.634 -11.989,-3.208c-1.332,0.771 -2.439,1.876 -3.207,3.208" style="fill:none;fill-rule:nonzero;stroke:#000;stroke-width:1.5px;"/><path d="M22.688,17.625c2.827,0 5.118,2.291 5.118,5.119c0,2.827 -2.291,5.119 -5.118,5.119c-2.828,0 -5.119,-2.292 -5.119,-5.119c0,-2.828 2.291,-5.119 5.119,-5.119Z" style="fill:none;fill-rule:nonzero;stroke:#000;stroke-width:1.5px;"/><path d="M13.913,38.1c0,-4.846 3.929,-8.775 8.775,-8.775c4.845,0 8.775,3.929 8.775,8.775" style="fill:none;fill-rule:nonzero;stroke:#000;stroke-width:1.5px;"/></g></svg>