<svg width="88" height="25" viewBox="0 0 88 25" fill="none" xmlns="http://www.w3.org/2000/svg">
<g clip-path="url(#clip0)">
<path d="M22.4858 14.489V19.8003H18.311V2.18408H22.4858V11.1176H24.3549L27.016 6.39765H31.3896L27.8115 12.8448L31.3922 19.8003H27.016L24.273 14.4909L22.4858 14.489Z" fill="#ED017F"/>
<path d="M44.2358 16.0055L44.1953 10.2326V9.55828C44.0369 7.53543 42.3271 6.06096 40.3788 6.22977H34.936C34.7136 6.20645 34.4896 6.20645 34.2672 6.22977C33.8145 6.27546 33.3748 6.41529 32.9731 6.64126C32.5715 6.86722 32.2159 7.17489 31.9265 7.54667C31.6372 7.91844 31.4198 8.34702 31.2869 8.8079C31.154 9.26877 31.1082 9.75289 31.152 10.2326V16.6797C31.3113 18.7026 33.0211 20.1771 34.9298 20.0092H41.0898C43.0029 19.8404 44.3942 18.0283 44.2358 16.0055ZM40.0998 15.7947C40.0932 15.9149 40.062 16.0322 40.0082 16.1383C39.9545 16.2444 39.8796 16.3368 39.7887 16.4091C39.6978 16.4814 39.5931 16.5318 39.4819 16.5568C39.3708 16.5818 39.2558 16.5808 39.145 16.5538H36.0448C35.5678 16.5109 35.2889 16.0875 35.3293 15.5839V10.3613C35.351 10.1268 35.4593 9.91094 35.6306 9.76083C35.8019 9.61072 36.0223 9.53858 36.2437 9.56015H39.3448C39.7848 9.60211 40.1007 10.0656 40.0602 10.572H40.1007L40.0998 15.7947Z" fill="#ED017F"/>
<path d="M52.426 9.81104C51.4518 9.80774 50.484 9.97863 49.5634 10.3165V19.7136H45.3886V6.39766H49.0468L49.2853 7.66229C50.0403 7.19598 50.7962 6.77724 51.5918 6.56646C52.2402 6.31513 52.9253 6.18665 53.6158 6.18689H54.6498C55.0915 6.15412 55.5349 6.21448 55.9545 6.36446C56.374 6.51444 56.7613 6.75108 57.0941 7.06068C57.4268 7.37029 57.6983 7.74672 57.8929 8.16822C58.0875 8.58972 58.2014 9.04792 58.2278 9.51633V19.8003H54.1358V10.698C54.1193 10.4573 54.0197 10.2315 53.856 10.0638C53.6943 9.90285 53.4812 9.81258 53.2594 9.81104H52.426Z" fill="#ED017F"/>
<path d="M71.6707 20.5147V6.39764H62.2477C61.3294 6.50416 60.4869 6.98691 59.8999 7.74281C59.3129 8.49872 59.028 9.46787 59.1061 10.4433V15.9215C59.166 16.8652 59.5762 17.7452 60.247 18.369C60.9177 18.9929 61.7944 19.3096 62.685 19.25H63.5202C64.9114 19.25 66.2631 19.0393 67.5752 18.7446L67.496 20.0092C67.4943 20.244 67.4092 20.4694 67.2575 20.6406C67.0922 20.7954 66.8814 20.8847 66.6609 20.8933C65.1103 20.8933 62.8038 20.8094 59.7819 20.5566V23.8012C62.5654 24.0959 65.3092 24.3067 68.0926 24.3067H68.5326C70.4 24.1388 71.7904 22.4526 71.6707 20.5147ZM67.5752 15.6268C66.6295 15.7973 65.6719 15.8831 64.7126 15.8833V15.8404H64.1159C64.0088 15.8385 63.9032 15.814 63.8052 15.7683C63.7071 15.7226 63.6186 15.6567 63.5449 15.5744C63.4712 15.4921 63.4137 15.395 63.3757 15.2889C63.3378 15.1828 63.3202 15.0697 63.3239 14.9563V10.5674C63.3635 10.061 63.8009 9.76625 64.2778 9.80822H67.5778L67.5752 15.6268Z" fill="#ED017F"/>
<path d="M81.6112 6.18406C78.987 6.22696 76.4025 6.35286 73.8179 6.69047L73.656 9.68511L76.6383 9.43237L80.058 9.30553C80.1685 9.30228 80.2784 9.32302 80.381 9.36649C80.4836 9.40995 80.5767 9.47522 80.6546 9.55827C80.813 9.76904 80.9327 9.97981 80.9327 10.1906V11.2015H75.6439C73.8153 11.3284 72.3879 13.0556 72.5428 14.9945V16.6797C72.5736 17.1448 72.6907 17.5989 72.8873 18.0159C73.084 18.4329 73.3563 18.8048 73.6888 19.1101C74.0212 19.4154 74.4073 19.6482 74.8248 19.7951C75.2423 19.942 75.683 20.0002 76.1218 19.9663H76.956C77.635 19.9672 78.3086 19.839 78.9448 19.5876C79.779 19.3769 80.535 18.9553 81.2504 18.4498L81.5294 19.7135H85.1866V9.47433C85.0705 7.53542 83.4398 6.06096 81.6112 6.18406ZM81.0542 16.0027C80.1264 16.3045 79.162 16.4616 78.1915 16.469V16.5538H77.5949C77.4853 16.5538 77.3767 16.5309 77.2754 16.4864C77.1742 16.442 77.0822 16.3767 77.0047 16.2946C76.9272 16.2124 76.8658 16.1148 76.8239 16.0074C76.782 15.9 76.7605 15.785 76.7606 15.6688V15.417C76.7576 15.2999 76.7771 15.1834 76.8182 15.0747C76.8592 14.9659 76.9208 14.8672 76.9991 14.7847C77.0715 14.6917 77.1626 14.6171 77.2656 14.5661C77.3687 14.5151 77.4812 14.4891 77.5949 14.49H81.0542V16.0027Z" fill="#ED017F"/>
<path d="M72.7839 23.1689H71.2334V24.897H72.7839V23.1689Z" fill="#ED017F"/>
<path d="M75.7266 24.981C75.4311 24.9805 75.1369 24.9381 74.8519 24.8551L74.1761 24.4755C74.0088 24.3077 73.8738 24.1073 73.7783 23.8852C73.6012 23.4873 73.5483 23.04 73.6274 22.6081C73.7066 22.1762 73.9135 21.7824 74.2183 21.4837L74.8546 21.147C75.1131 21.0771 75.38 21.0485 75.6466 21.0621L76.2828 21.147L76.8398 21.3568V22.3687H76.641L76.4817 22.1999C76.3305 22.0741 76.1536 21.9876 75.9651 21.9472L75.6466 21.9052C75.3685 21.9052 75.13 21.9891 74.9707 22.1999C74.781 22.4323 74.6816 22.7323 74.6926 23.0393C74.6926 23.292 74.7718 23.6287 74.9707 23.8395C75.0621 23.9266 75.1689 23.9938 75.2849 24.0372C75.4008 24.0806 75.5238 24.0993 75.6466 24.0922L76.0047 24.0502L76.3233 23.9243L76.4817 23.7975L76.641 23.6716H76.8398V24.6825L76.2828 24.9353L75.7266 24.981Z" fill="#ED017F"/>
<path d="M81.136 23.043C81.136 22.4946 80.9767 21.9472 80.6186 21.5676C80.2208 21.2309 79.7438 20.9782 79.2273 21.0621C78.7083 21.0559 78.2025 21.2357 77.792 21.5723C77.4743 21.9518 77.2358 22.4993 77.315 23.0477C77.3102 23.5683 77.4791 24.0741 77.792 24.4755C78.1866 24.8292 78.6867 25.0232 79.2035 25.0232C79.7203 25.0232 80.2204 24.8292 80.615 24.4755C80.975 24.054 81.1738 23.5904 81.136 23.043ZM79.904 23.5904L79.7447 23.928L79.5062 24.1388C79.4276 24.2046 79.3277 24.2348 79.2282 24.2228C79.1085 24.2228 78.9501 24.2228 78.87 24.1388C78.7512 24.0959 78.6711 24.054 78.6315 23.97L78.4326 23.6324L78.393 23.085C78.3634 22.8876 78.377 22.6856 78.4326 22.4946L78.6315 22.116L78.87 21.9472L79.1886 21.9052L79.464 21.9453C79.52 21.9463 79.5749 21.9624 79.6235 21.9919C79.6721 22.0214 79.7129 22.0634 79.7421 22.1141L79.9014 22.4928L79.941 23.0411L79.904 23.5904Z" fill="#ED017F"/>
<path d="M85.2298 22.1999V24.8551H84.0761V22.5375L83.9969 22.1999L83.8376 22.0311L83.4803 21.9892L83.1222 22.074L82.8441 22.1999V24.8551H81.73V21.147H82.8837V21.5257L83.4398 21.189C83.628 21.1023 83.8314 21.0591 84.0365 21.0622C84.2515 21.0585 84.4631 21.12 84.6463 21.2395C84.8295 21.3589 84.9766 21.5313 85.0705 21.7364C85.2548 21.5319 85.4697 21.361 85.7067 21.231C85.9062 21.1307 86.1224 21.0734 86.343 21.0622C86.6606 20.9782 86.9792 21.147 87.1781 21.3998C87.4166 21.7364 87.5354 22.074 87.4958 22.4527V24.8971H86.3826V22.5795L86.3034 22.2419C86.2849 22.1994 86.2573 22.1621 86.2227 22.1329C86.1882 22.1038 86.1477 22.0836 86.1045 22.074L85.7859 22.0311L85.5078 22.074L85.2298 22.1999Z" fill="#ED017F"/>
<path d="M16.6012 3.06913C15.7391 2.1517 14.7086 1.43151 13.5734 0.953149C12.4381 0.474786 11.2223 0.248423 10.0012 0.288067C8.81049 0.265458 7.62724 0.491749 6.51908 0.954006C5.41093 1.41626 4.39959 2.10543 3.54287 2.9821C2.68615 3.85878 2.00085 4.90579 1.52612 6.06329C1.05139 7.22079 0.79655 8.46609 0.77616 9.72802C0.77616 9.84086 0.77616 9.95464 0.77616 10.0675C0.616 15.3731 4.5936 19.8003 9.60344 19.9243H10.0012C15.011 20.0512 19.184 15.8367 19.2658 10.5273V10.0218C19.3011 8.7304 19.0824 7.44537 18.6236 6.24841C18.1649 5.05144 17.4761 3.96874 16.6012 3.06913V3.06913Z" fill="#F9A024"/>
<path d="M10.0012 20.1351C7.53624 20.1807 5.15415 19.1921 3.37396 17.3846C1.59376 15.5771 0.559746 13.0972 0.4972 10.4853V10.0638C0.453917 7.45136 1.38671 4.9267 3.09228 3.04002C4.79785 1.15333 7.13794 0.0575575 9.60257 -0.0084862H10.0003C11.2196 -0.0393463 12.4326 0.184663 13.5702 0.65075C14.7077 1.11684 15.7475 1.81587 16.63 2.70791C17.5126 3.59995 18.2207 4.66753 18.7139 5.84966C19.2071 7.03179 19.4757 8.30531 19.5043 9.59747V10.0638C19.537 11.3569 19.328 12.6441 18.8895 13.8513C18.451 15.0585 17.7915 16.1618 16.9491 17.0979C16.1068 18.034 15.098 18.7844 13.981 19.3058C12.8639 19.8272 11.6606 20.1093 10.4403 20.136L10.0012 20.1351ZM10.0012 0.498858C7.66667 0.441963 5.406 1.36782 3.71424 3.07368C2.02248 4.77954 1.03752 7.12638 0.97504 9.60027V10.0666C0.89584 15.2501 4.7124 19.5485 9.64305 19.6324H10.0012C11.1598 19.6712 12.314 19.4656 13.397 19.0276C14.4799 18.5897 15.47 17.9281 16.3097 17.0812C17.1494 16.2344 17.8219 15.2192 18.2883 14.0945C18.7547 12.9699 19.0056 11.7583 19.0265 10.5301V10.0638C19.1462 4.92319 15.2495 0.624759 10.4025 0.540824L10.0012 0.498858Z" fill="#ED017F"/>
<path d="M5.22984 6.73526C5.55581 6.42288 5.98294 6.25585 6.42224 6.26895C6.91364 6.26055 7.40129 6.36093 7.854 6.56365C8.34577 6.772 8.81274 7.04088 9.24528 7.36477L9.44416 7.19597C9.16608 6.60562 8.72872 6.14211 8.21216 5.76347C7.65407 5.4294 7.02359 5.25488 6.38264 5.25706C6.04249 5.26624 5.70639 5.33755 5.38912 5.46783C5.06726 5.60328 4.7913 5.83822 4.59712 6.14211C4.39824 6.39485 4.27856 6.73246 4.15712 7.02717C4.07155 7.34164 4.04465 7.67077 4.07792 7.99615H4.356C4.56431 7.51786 4.86152 7.08901 5.22984 6.73526V6.73526ZM11.2341 5.81103C11.631 5.51632 12.1088 5.34472 12.5858 5.17872C12.9835 5.05281 13.4605 5.13675 13.8582 5.38949C14.2835 5.67058 14.6601 6.02705 14.9714 6.44335L15.2099 6.35848C15.1703 6.06377 15.0902 5.6842 14.8914 5.43146C14.7473 5.11148 14.5282 4.83599 14.2551 4.63127C14.0166 4.37853 13.6594 4.2517 13.3408 4.16496C13.0008 4.0801 12.6468 4.0801 12.3068 4.16496C11.7018 4.32081 11.147 4.64501 10.6998 5.10407C10.2525 5.56314 9.92904 6.14042 9.76272 6.77629L10.0012 6.90313L11.1936 5.76533L11.2341 5.81103ZM15.488 12.4242C15.3012 12.9195 15.0331 13.3758 14.696 13.7719C14.5376 13.9407 14.3783 14.1514 14.1398 14.3202L13.5432 14.7865C12.6639 15.2845 11.708 15.6126 10.7202 15.7555C9.72932 15.9169 8.7192 15.8885 7.73784 15.6716C7.25613 15.5447 6.78943 15.3608 6.34656 15.1232C5.8696 14.9124 5.47184 14.5758 5.03448 14.2382L4.9148 14.365C5.5516 15.3402 6.47387 16.0659 7.53896 16.4298C8.60881 16.8427 9.76345 16.9444 10.883 16.7245C12.0029 16.569 13.0687 16.1203 13.9841 15.4189C14.8966 14.68 15.4974 13.5895 15.6561 12.3841H15.488V12.4242ZM9.84192 9.26172L10.2001 12.759L10.399 12.7171L10.0012 9.26172H9.84192Z" fill="#ED017F"/>
</g>
<defs>
<clipPath id="clip0">
<rect width="88" height="25" fill="white"/>
</clipPath>
</defs>
</svg>
