<svg xmlns="http://www.w3.org/2000/svg" width="118.439" height="29.957" viewBox="0 0 118.439 29.957">
  <g id="Group_125" data-name="Group 125" transform="translate(-1722.625 -289.353)">
    <g id="Group_124" data-name="Group 124" transform="translate(1591 241)">
      <g id="Path_15" data-name="Path 15" transform="translate(134 79.373)" stroke-linecap="round">
        <path d="M 85.35447692871094 -2.814280986785889 L 80.03279113769531 -2.814280986785889 C 77.95488739013672 -2.814280986785889 76.72855377197266 -3.604443550109863 76.06568908691406 -4.267318725585938 C 76.04647064208984 -4.28653621673584 76.02713012695312 -4.306242942810059 76.00772094726562 -4.326414585113525 C 75.58587646484375 -3.449827909469604 74.70412445068359 -2.887693643569946 73.61006164550781 -2.887693643569946 L 71.77498626708984 -2.887693643569946 C 71.04385375976562 -2.887693643569946 70.40753173828125 -3.138726472854614 69.93993377685547 -3.566878318786621 C 69.47232818603516 -3.138726472854614 68.83600616455078 -2.887693643569946 68.10486602783203 -2.887693643569946 L 66.26979827880859 -2.887693643569946 C 65.559326171875 -2.887693643569946 64.93840026855469 -3.124717235565186 64.47480010986328 -3.530985116958618 C 64.0037841796875 -3.079984903335571 63.35194396972656 -2.814280986785889 62.59967803955078 -2.814280986785889 L 60.76460266113281 -2.814280986785889 C 59.21894073486328 -2.814280986785889 58.09707641601562 -3.936143636703491 58.09707641601562 -5.481818675994873 L 58.09707641601562 -11.84011077880859 L 57.17665863037109 -5.170407295227051 C 56.98280334472656 -3.738908052444458 55.91401672363281 -2.814280986785889 54.45198822021484 -2.814280986785889 L 50.52494049072266 -2.814280986785889 C 49.84357833862305 -2.814280986785889 49.22661590576172 -3.035431146621704 48.74075317382812 -3.453818559646606 C 48.24355316162109 -3.881954193115234 47.93114852905273 -4.475368976593018 47.83698272705078 -5.170328140258789 L 46.8198127746582 -12.54108905792236 C 46.62596893310547 -11.39381790161133 46.14581680297852 -10.4453763961792 45.42376708984375 -9.739801406860352 C 46.33127975463867 -9.328624725341797 46.91655349731445 -8.433306694030762 46.91655349731445 -7.31688117980957 L 46.91655349731445 -5.481818675994873 C 46.91655349731445 -3.936143636703491 45.7946891784668 -2.814280986785889 44.24902725219727 -2.814280986785889 L 39.66135025024414 -2.814280986785889 C 36.3181037902832 -2.814280986785889 34.24122619628906 -4.905218601226807 34.24122619628906 -8.2711181640625 L 34.24122619628906 -13.99857711791992 C 33.93589782714844 -13.88556671142578 33.59881973266602 -13.82468128204346 33.23862838745117 -13.82468128204346 L 33.153564453125 -13.82468128204346 L 33.153564453125 -5.481818675994873 C 33.153564453125 -3.936143636703491 32.03170394897461 -2.814280986785889 30.48604011535645 -2.814280986785889 L 28.65097618103027 -2.814280986785889 C 27.10530281066895 -2.814280986785889 25.98344039916992 -3.936143636703491 25.98344039916992 -5.481818675994873 L 25.98344039916992 -13.82468128204346 L 25.89837646484375 -13.82468128204346 C 25.53818511962891 -13.82468128204346 25.20110702514648 -13.8855676651001 24.89577674865723 -13.99857711791992 L 24.89577674865723 -4.747793674468994 C 24.89577674865723 -3.663581132888794 24.04647636413574 -2.814280986785889 22.96227645874023 -2.814280986785889 L 17.64058876037598 -2.814280986785889 C 15.56268978118896 -2.814280986785889 14.33635234832764 -3.604443550109863 13.67348957061768 -4.267318725585938 C 13.64662456512451 -4.294182777404785 13.6195764541626 -4.321946620941162 13.5923547744751 -4.350680828094482 C 13.51576709747314 -4.153663635253906 13.41258907318115 -3.967241048812866 13.28323936462402 -3.794368505477905 C 12.81035232543945 -3.162343502044678 12.06381416320801 -2.814280986785889 11.18115234375 -2.814280986785889 L 9.309389114379883 -2.814280986785889 C 7.981864452362061 -2.814280986785889 6.979301929473877 -3.60175609588623 6.62753963470459 -4.920793533325195 L 6.62572717666626 -4.927606105804443 L 6.623964786529541 -4.934431076049805 L 6.537856578826904 -5.268099308013916 C 6.439435482025146 -3.833774566650391 5.351094722747803 -2.814280986785889 3.877602100372314 -2.814280986785889 L 2.042539596557617 -2.814280986785889 C 0.4968645572662354 -2.814280986785889 -0.6249979138374329 -3.936143636703491 -0.6249979138374329 -5.481818675994873 L -0.6249979138374329 -23.83246803283691 C -0.6249979138374329 -25.37813186645508 0.4968645572662354 -26.4999942779541 2.042539596557617 -26.4999942779541 L 8.465264320373535 -26.4999942779541 C 10.54316425323486 -26.4999942779541 11.76948928833008 -25.70983123779297 12.43236446380615 -25.04696846008301 C 13.09522724151611 -24.38409423828125 13.88538932800293 -23.15776824951172 13.88538932800293 -21.07986831665039 L 13.88538932800293 -20.78421020507812 C 14.19071865081787 -20.89722061157227 14.52779769897461 -20.95810699462891 14.88798999786377 -20.95810699462891 L 19.47565269470215 -20.95810699462891 C 21.55355262756348 -20.95810699462891 22.77987670898438 -20.16793060302734 23.44275283813477 -19.50506782531738 C 23.45055961608887 -19.49725914001465 23.4583854675293 -19.4893741607666 23.46622657775879 -19.48140907287598 C 23.87314605712891 -20.40062141418457 24.77355575561523 -20.99480628967285 25.89837646484375 -20.99480628967285 L 25.98344039916992 -20.99480628967285 L 25.98344039916992 -23.83246803283691 C 25.98344039916992 -25.37813186645508 27.10530281066895 -26.4999942779541 28.65097618103027 -26.4999942779541 L 30.48604011535645 -26.4999942779541 C 32.03170394897461 -26.4999942779541 33.153564453125 -25.37813186645508 33.153564453125 -23.83246803283691 L 33.153564453125 -20.99480628967285 L 33.23862838745117 -20.99480628967285 C 34.35505294799805 -20.99480628967285 35.25037002563477 -20.40953636169434 35.66154479980469 -19.50201988220215 C 36.59982681274414 -20.46220779418945 37.96809768676758 -20.99480628967285 39.66135025024414 -20.99480628967285 L 41.49642562866211 -20.99480628967285 C 43.4729118347168 -20.99480628967285 45.00677490234375 -20.26896286010742 45.93059158325195 -18.98468780517578 L 45.30834579467773 -23.49371147155762 C 45.17731857299805 -24.29294586181641 45.36487579345703 -25.04175758361816 45.83836364746094 -25.60613059997559 C 46.32197570800781 -26.18254280090332 47.04791641235352 -26.4999942779541 47.88245391845703 -26.4999942779541 L 49.64411544799805 -26.4999942779541 C 51.10846328735352 -26.4999942779541 52.17832565307617 -25.57251930236816 52.36970138549805 -24.13714408874512 L 52.37076568603516 -24.1291561126709 L 52.37176513671875 -24.12115669250488 L 52.48977279663086 -23.16921234130859 L 52.60459136962891 -24.1164436340332 L 52.60585021972656 -24.12680625915527 L 52.60722732543945 -24.13714408874512 C 52.79565048217773 -25.55044364929199 53.87623977661133 -26.4999942779541 55.29611587524414 -26.4999942779541 L 57.13117599487305 -26.4999942779541 C 57.84499740600586 -26.4999942779541 58.47934722900391 -26.26774597167969 58.9505729675293 -25.83984184265137 C 59.4161491394043 -26.25644493103027 60.04431915283203 -26.4999942779541 60.76460266113281 -26.4999942779541 L 62.59967803955078 -26.4999942779541 C 63.330810546875 -26.4999942779541 63.96713256835938 -26.24896049499512 64.43473052978516 -25.82080841064453 C 64.90233612060547 -26.24896049499512 65.53866577148438 -26.4999942779541 66.26979827880859 -26.4999942779541 L 68.10486602783203 -26.4999942779541 C 68.83600616455078 -26.4999942779541 69.47232818603516 -26.24896049499512 69.93993377685547 -25.82080841064453 C 70.40753173828125 -26.24896049499512 71.04385375976562 -26.4999942779541 71.77498626708984 -26.4999942779541 L 73.61006164550781 -26.4999942779541 C 75.15572357177734 -26.4999942779541 76.277587890625 -25.37813186645508 76.277587890625 -23.83246803283691 L 76.277587890625 -20.78421020507812 C 76.58291625976562 -20.89722061157227 76.91999816894531 -20.95810699462891 77.28018951416016 -20.95810699462891 L 81.86785125732422 -20.95810699462891 C 83.94575500488281 -20.95810699462891 85.17207336425781 -20.16793060302734 85.83495330810547 -19.50506782531738 C 86.49781799316406 -18.84219360351562 87.28797912597656 -17.61586952209473 87.28797912597656 -15.53796863555908 L 87.28797912597656 -4.747793674468994 C 87.28797912597656 -3.663581132888794 86.43867492675781 -2.814280986785889 85.35447692871094 -2.814280986785889 Z M 17.91489791870117 -9.151945114135742 C 18.06256866455078 -8.881499290466309 18.28767013549805 -8.656397819519043 18.5581169128418 -8.508726119995117 C 18.82856369018555 -8.656397819519043 19.05366897583008 -8.881499290466309 19.20134162902832 -9.151945114135742 C 19.05366897583008 -9.422392845153809 18.82856369018555 -9.647497177124023 18.5581169128418 -9.795170783996582 C 18.28767013549805 -9.647497177124023 18.06256866455078 -9.422392845153809 17.91489791870117 -9.151945114135742 Z M 80.30709838867188 -9.151945114135742 C 80.45476531982422 -8.881499290466309 80.67987060546875 -8.656397819519043 80.9503173828125 -8.508726119995117 C 81.22076416015625 -8.656397819519043 81.44586944580078 -8.881499290466309 81.59354400634766 -9.151945114135742 C 81.44586944580078 -9.422392845153809 81.22076416015625 -9.647497177124023 80.9503173828125 -9.795170783996582 C 80.67987060546875 -9.647497177124023 80.45476531982422 -9.422392845153809 80.30709838867188 -9.151945114135742 Z M 39.93567276000977 -14.65714359283447 C 40.08334350585938 -14.38669776916504 40.30844497680664 -14.16159820556641 40.57888793945312 -14.01392650604248 C 40.84933471679688 -14.16159820556641 41.07443618774414 -14.38669776916504 41.22210693359375 -14.65714359283447 C 41.07443618774414 -14.92758941650391 40.84933471679688 -15.15268898010254 40.57888793945312 -15.30036067962646 C 40.30844497680664 -15.15268898010254 40.08334350585938 -14.92758941650391 39.93567276000977 -14.65714359283447 Z M 6.545126914978027 -17.32468032836914 L 6.715264797210693 -17.32468032836914 L 6.715264797210693 -19.25646781921387 L 6.545126914978027 -19.25646781921387 L 6.545126914978027 -17.32468032836914 Z" stroke="none"/>
        <path d="M 85.35447692871094 -4.564286231994629 C 85.46457672119141 -4.564286231994629 85.53797149658203 -4.637686252593994 85.53797149658203 -4.747786521911621 L 85.53797149658203 -15.53797245025635 C 85.53797149658203 -17.92355728149414 84.25344848632812 -19.20810127258301 81.86784362792969 -19.20810127258301 L 77.28018951416016 -19.20810127258301 C 76.69297790527344 -19.20810127258301 76.36266326904297 -18.87778663635254 76.36266326904297 -18.29057121276855 L 76.36266326904297 -16.49220085144043 C 76.36266326904297 -15.90498638153076 76.69297790527344 -15.57467174530029 77.28018951416016 -15.57467174530029 L 80.9503173828125 -15.57467174530029 C 81.53752899169922 -15.57467174530029 81.86784362792969 -15.24435806274414 81.86784362792969 -14.65714359283447 C 81.86784362792969 -14.06991481781006 81.53752899169922 -13.73961544036865 80.9503173828125 -13.73961544036865 L 80.03279113769531 -13.73961544036865 C 77.64720153808594 -13.73961544036865 76.36266326904297 -12.4550724029541 76.36266326904297 -10.06948661804199 L 76.36266326904297 -8.234415054321289 C 76.36266326904297 -5.84882926940918 77.64720153808594 -4.564286231994629 80.03279113769531 -4.564286231994629 L 85.35447692871094 -4.564286231994629 M 80.21629333496094 -10.06948661804199 L 81.68434906005859 -10.06948661804199 C 81.79444885253906 -10.06948661804199 81.86784362792969 -9.996071815490723 81.86784362792969 -9.885972023010254 L 81.86784362792969 -8.417929649353027 C 81.86784362792969 -8.307814598083496 81.79444885253906 -8.234415054321289 81.68434906005859 -8.234415054321289 L 80.21629333496094 -8.234415054321289 C 80.10618591308594 -8.234415054321289 80.03279113769531 -8.307814598083496 80.03279113769531 -8.417929649353027 L 80.03279113769531 -9.885972023010254 C 80.03279113769531 -9.996071815490723 80.10618591308594 -10.06948661804199 80.21629333496094 -10.06948661804199 M 62.59967422485352 -4.564286231994629 C 63.1868896484375 -4.564286231994629 63.51720428466797 -4.894600868225098 63.51720428466797 -5.481814861297607 L 63.51720428466797 -18.32727241516113 C 63.51720428466797 -18.91448593139648 63.1868896484375 -19.24480056762695 62.59967422485352 -19.24480056762695 L 60.76460266113281 -19.24480056762695 C 60.17739105224609 -19.24480056762695 59.84707641601562 -18.91448593139648 59.84707641601562 -18.32727241516113 L 59.84707641601562 -5.481814861297607 C 59.84707641601562 -4.894600868225098 60.17739105224609 -4.564286231994629 60.76460266113281 -4.564286231994629 L 62.59967422485352 -4.564286231994629 M 54.45198822021484 -4.564286231994629 C 55.03920364379883 -4.564286231994629 55.3695182800293 -4.857900619506836 55.44291687011719 -5.408414840698242 L 57.97530364990234 -23.75907135009766 C 58.08540344238281 -24.38298606872559 57.75510406494141 -24.75 57.13117599487305 -24.75 L 55.29611968994141 -24.75 C 54.74559020996094 -24.75 54.41527557373047 -24.45638656616211 54.34187698364258 -23.9058723449707 L 52.72701644897461 -10.58330059051514 C 52.70866775512695 -10.50990104675293 52.60773849487305 -10.47320079803467 52.50680923461914 -10.47320079803467 C 52.4058837890625 -10.47320079803467 52.30495452880859 -10.50990104675293 52.28660202026367 -10.58330059051514 L 50.63504791259766 -23.9058723449707 C 50.5616455078125 -24.45638656616211 50.23133087158203 -24.75 49.64411926269531 -24.75 L 47.8824462890625 -24.75 C 47.2585334777832 -24.75 46.92821884155273 -24.38298606872559 47.0383186340332 -23.75907135009766 L 49.57070541381836 -5.408414840698242 C 49.64411926269531 -4.857900619506836 50.0111198425293 -4.564286231994629 50.52494812011719 -4.564286231994629 L 54.45198822021484 -4.564286231994629 M 44.24901962280273 -4.564286231994629 C 44.83624649047852 -4.564286231994629 45.16654586791992 -4.894600868225098 45.16654586791992 -5.481814861297607 L 45.16654586791992 -7.316886425018311 C 45.16654586791992 -7.904100894927979 44.83624649047852 -8.234415054321289 44.24901962280273 -8.234415054321289 L 40.57888793945312 -8.234415054321289 C 39.99167633056641 -8.234415054321289 39.66136169433594 -8.564729690551758 39.66136169433594 -9.151943206787109 C 39.66136169433594 -9.739171981811523 39.99167633056641 -10.06948661804199 40.57888793945312 -10.06948661804199 L 41.49643325805664 -10.06948661804199 C 43.88200378417969 -10.06948661804199 45.16654586791992 -11.35402965545654 45.16654586791992 -13.73961544036865 L 45.16654586791992 -15.57467174530029 C 45.16654586791992 -17.96025848388672 43.88200378417969 -19.24480056762695 41.49643325805664 -19.24480056762695 L 39.66136169433594 -19.24480056762695 C 37.27577590942383 -19.24480056762695 35.99123382568359 -17.96025848388672 35.99123382568359 -15.57467174530029 L 35.99123382568359 -8.271115303039551 C 35.99123382568359 -5.885529518127441 37.27577590942383 -4.564286231994629 39.66136169433594 -4.564286231994629 L 44.24901962280273 -4.564286231994629 M 39.8448600769043 -15.57467174530029 L 41.31291961669922 -15.57467174530029 C 41.42301940917969 -15.57467174530029 41.49643325805664 -15.50127220153809 41.49643325805664 -15.39117240905762 L 41.49643325805664 -13.92311477661133 C 41.49643325805664 -13.81301498413086 41.42301940917969 -13.73961544036865 41.31291961669922 -13.73961544036865 L 39.8448600769043 -13.73961544036865 C 39.73476028442383 -13.73961544036865 39.66136169433594 -13.81301498413086 39.66136169433594 -13.92311477661133 L 39.66136169433594 -15.39117240905762 C 39.66136169433594 -15.50127220153809 39.73476028442383 -15.57467174530029 39.8448600769043 -15.57467174530029 M 30.48603248596191 -4.564286231994629 C 31.07326126098633 -4.564286231994629 31.4035758972168 -4.894600868225098 31.4035758972168 -5.481814861297607 L 31.4035758972168 -15.39117240905762 C 31.4035758972168 -15.50127220153809 31.47697448730469 -15.57467174530029 31.58707618713379 -15.57467174530029 L 33.23863220214844 -15.57467174530029 C 33.82586288452148 -15.57467174530029 34.15616226196289 -15.90498638153076 34.15616226196289 -16.49220085144043 L 34.15616226196289 -18.32727241516113 C 34.15616226196289 -18.91448593139648 33.82586288452148 -19.24480056762695 33.23863220214844 -19.24480056762695 L 31.58707618713379 -19.24480056762695 C 31.47697448730469 -19.24480056762695 31.4035758972168 -19.31821441650391 31.4035758972168 -19.42831420898438 L 31.4035758972168 -23.83247184753418 C 31.4035758972168 -24.41968727111816 31.07326126098633 -24.75 30.48603248596191 -24.75 L 28.65097618103027 -24.75 C 28.06374740600586 -24.75 27.73344612121582 -24.41968727111816 27.73344612121582 -23.83247184753418 L 27.73344612121582 -19.42831420898438 C 27.73344612121582 -19.31821441650391 27.66003227233887 -19.24480056762695 27.5499324798584 -19.24480056762695 L 25.89837455749512 -19.24480056762695 C 25.31116104125977 -19.24480056762695 24.9808464050293 -18.91448593139648 24.9808464050293 -18.32727241516113 L 24.9808464050293 -16.49220085144043 C 24.9808464050293 -15.90498638153076 25.31116104125977 -15.57467174530029 25.89837455749512 -15.57467174530029 L 27.5499324798584 -15.57467174530029 C 27.66003227233887 -15.57467174530029 27.73344612121582 -15.50127220153809 27.73344612121582 -15.39117240905762 L 27.73344612121582 -5.481814861297607 C 27.73344612121582 -4.894600868225098 28.06374740600586 -4.564286231994629 28.65097618103027 -4.564286231994629 L 30.48603248596191 -4.564286231994629 M 22.9622745513916 -4.564286231994629 C 23.07237434387207 -4.564286231994629 23.14577484130859 -4.637686252593994 23.14577484130859 -4.747786521911621 L 23.14577484130859 -15.53797245025635 C 23.14577484130859 -17.92355728149414 21.86123275756836 -19.20810127258301 19.47564697265625 -19.20810127258301 L 14.88798999786377 -19.20810127258301 C 14.30076122283936 -19.20810127258301 13.97046089172363 -18.87778663635254 13.97046089172363 -18.29057121276855 L 13.97046089172363 -16.49220085144043 C 13.97046089172363 -15.90498638153076 14.30076122283936 -15.57467174530029 14.88798999786377 -15.57467174530029 L 18.55811882019043 -15.57467174530029 C 19.14533233642578 -15.57467174530029 19.47564697265625 -15.24435806274414 19.47564697265625 -14.65714359283447 C 19.47564697265625 -14.06991481781006 19.14533233642578 -13.73961544036865 18.55811882019043 -13.73961544036865 L 17.64058876037598 -13.73961544036865 C 15.25500392913818 -13.73961544036865 13.97046089172363 -12.4550724029541 13.97046089172363 -10.06948661804199 L 13.97046089172363 -8.234415054321289 C 13.97046089172363 -5.84882926940918 15.25500392913818 -4.564286231994629 17.64058876037598 -4.564286231994629 L 22.9622745513916 -4.564286231994629 M 17.82408905029297 -10.06948661804199 L 19.29214668273926 -10.06948661804199 C 19.40224647521973 -10.06948661804199 19.47564697265625 -9.996071815490723 19.47564697265625 -9.885972023010254 L 19.47564697265625 -8.417929649353027 C 19.47564697265625 -8.307814598083496 19.40224647521973 -8.234415054321289 19.29214668273926 -8.234415054321289 L 17.82408905029297 -8.234415054321289 C 17.7139892578125 -8.234415054321289 17.64058876037598 -8.307814598083496 17.64058876037598 -8.417929649353027 L 17.64058876037598 -9.885972023010254 C 17.64058876037598 -9.996071815490723 17.7139892578125 -10.06948661804199 17.82408905029297 -10.06948661804199 M 11.18116092681885 -4.564286231994629 C 11.84177494049072 -4.564286231994629 12.13538932800293 -4.968000888824463 11.95188999176025 -5.59192943572998 L 10.22691822052002 -12.01464366912842 C 10.19021797180176 -12.12475776672363 10.26361846923828 -12.19815826416016 10.3737325668335 -12.2348575592041 C 11.51147556304932 -12.78537178039551 12.13538932800293 -13.88641548156738 12.13538932800293 -15.53797245025635 L 12.13538932800293 -21.07987213134766 C 12.13538932800293 -23.46545791625977 10.85084629058838 -24.75 8.465261459350586 -24.75 L 2.042532444000244 -24.75 C 1.455318093299866 -24.75 1.125003814697266 -24.41968727111816 1.125003814697266 -23.83247184753418 L 1.125003814697266 -5.481814861297607 C 1.125003814697266 -4.894600868225098 1.455318093299866 -4.564286231994629 2.042532444000244 -4.564286231994629 L 3.877603769302368 -4.564286231994629 C 4.464818000793457 -4.564286231994629 4.795132637023926 -4.894600868225098 4.795132637023926 -5.481814861297607 L 4.795132637023926 -10.95031547546387 C 4.795132637023926 -11.53752899169922 5.125446796417236 -11.86784362792969 5.712660789489746 -11.86784362792969 L 5.859475135803223 -11.86784362792969 C 6.409989356994629 -11.86784362792969 6.740303993225098 -11.61092948913574 6.850403785705566 -11.06041526794434 L 8.318461418151855 -5.371715068817139 C 8.465261459350586 -4.821200847625732 8.758874893188477 -4.564286231994629 9.309389114379883 -4.564286231994629 L 11.18116092681885 -4.564286231994629 M 5.712660789489746 -21.00647163391113 L 7.547732353210449 -21.00647163391113 C 8.134946823120117 -21.00647163391113 8.465261459350586 -20.67615699768066 8.465261459350586 -20.08893013000488 L 8.465261459350586 -16.49220085144043 C 8.465261459350586 -15.90498638153076 8.134946823120117 -15.57467174530029 7.547732353210449 -15.57467174530029 L 5.712660789489746 -15.57467174530029 C 5.125446796417236 -15.57467174530029 4.795132637023926 -15.90498638153076 4.795132637023926 -16.49220085144043 L 4.795132637023926 -20.08893013000488 C 4.795132637023926 -20.67615699768066 5.125446796417236 -21.00647163391113 5.712660789489746 -21.00647163391113 M 73.61006164550781 -4.637686252593994 C 74.19728851318359 -4.637686252593994 74.527587890625 -4.968000888824463 74.527587890625 -5.555214881896973 L 74.527587890625 -23.83247184753418 C 74.527587890625 -24.41968727111816 74.19728851318359 -24.75 73.61006164550781 -24.75 L 71.77498626708984 -24.75 C 71.18777465820312 -24.75 70.85746002197266 -24.41968727111816 70.85746002197266 -23.83247184753418 L 70.85746002197266 -5.555214881896973 C 70.85746002197266 -4.968000888824463 71.18777465820312 -4.637686252593994 71.77498626708984 -4.637686252593994 L 73.61006164550781 -4.637686252593994 M 68.1048583984375 -4.637686252593994 C 68.69209289550781 -4.637686252593994 69.02240753173828 -4.968000888824463 69.02240753173828 -5.555214881896973 L 69.02240753173828 -23.83247184753418 C 69.02240753173828 -24.41968727111816 68.69209289550781 -24.75 68.1048583984375 -24.75 L 66.26980590820312 -24.75 C 65.68257904052734 -24.75 65.35226440429688 -24.41968727111816 65.35226440429688 -23.83247184753418 L 65.35226440429688 -5.555214881896973 C 65.35226440429688 -4.968000888824463 65.68257904052734 -4.637686252593994 66.26980590820312 -4.637686252593994 L 68.1048583984375 -4.637686252593994 M 62.59967422485352 -21.07987213134766 C 63.1868896484375 -21.07987213134766 63.51720428466797 -21.41018676757812 63.51720428466797 -21.99740028381348 L 63.51720428466797 -23.83247184753418 C 63.51720428466797 -24.41968727111816 63.1868896484375 -24.75 62.59967422485352 -24.75 L 60.76460266113281 -24.75 C 60.17739105224609 -24.75 59.84707641601562 -24.41968727111816 59.84707641601562 -23.83247184753418 L 59.84707641601562 -21.99740028381348 C 59.84707641601562 -21.41018676757812 60.17739105224609 -21.07987213134766 60.76460266113281 -21.07987213134766 L 62.59967422485352 -21.07987213134766 M 85.35447692871094 -1.064286470413208 L 80.03279113769531 -1.064286470413208 C 78.41095733642578 -1.064286470413208 77.17324829101562 -1.456539154052734 76.25001525878906 -1.965213775634766 C 75.52320861816406 -1.440675377845764 74.61609649658203 -1.137686491012573 73.61006164550781 -1.137686491012573 L 71.77498626708984 -1.137686491012573 C 71.11264801025391 -1.137686491012573 70.49331665039062 -1.268973350524902 69.93992614746094 -1.508413434028625 C 69.38653564453125 -1.268973350524902 68.76720428466797 -1.137686491012573 68.1048583984375 -1.137686491012573 L 66.26980590820312 -1.137686491012573 C 65.64112091064453 -1.137686491012573 65.05112457275391 -1.25599730014801 64.51953887939453 -1.472783446311951 C 63.94496536254883 -1.20947253704071 63.29598617553711 -1.064286470413208 62.59967422485352 -1.064286470413208 L 60.76460266113281 -1.064286470413208 C 59.51339721679688 -1.064286470413208 58.41508865356445 -1.533020853996277 57.62655639648438 -2.313613653182983 C 57.56126022338867 -2.249774694442749 57.49372863769531 -2.187796354293823 57.42397689819336 -2.127729415893555 C 56.61606216430664 -1.432015061378479 55.58835983276367 -1.064286470413208 54.45198822021484 -1.064286470413208 L 50.52494812011719 -1.064286470413208 C 49.43439102172852 -1.064286470413208 48.39520263671875 -1.441957831382751 47.59883117675781 -2.127729415893555 C 47.52761459350586 -2.189056396484375 47.4586181640625 -2.252587080001831 47.39179992675781 -2.318306922912598 C 46.60293579101562 -1.534952402114868 45.502685546875 -1.064286470413208 44.24901962280273 -1.064286470413208 L 39.66136169433594 -1.064286470413208 C 36.9754753112793 -1.064286470413208 35.33876037597656 -2.153100728988647 34.43870544433594 -3.066500663757324 C 34.39586639404297 -3.109973192214966 34.3526725769043 -3.155105352401733 34.30918121337891 -3.202020883560181 C 33.55776596069336 -1.901859521865845 32.15841674804688 -1.064286470413208 30.48603248596191 -1.064286470413208 L 28.65097618103027 -1.064286470413208 C 27.46079063415527 -1.064286470413208 26.40899467468262 -1.48838198184967 25.63052558898926 -2.201616525650024 C 25.61070251464844 -2.180857181549072 25.59055137634277 -2.160234928131104 25.5701904296875 -2.139872074127197 C 24.87658882141113 -1.446272134780884 23.95040321350098 -1.064286470413208 22.9622745513916 -1.064286470413208 L 17.64058876037598 -1.064286470413208 C 16.03853034973145 -1.064286470413208 14.8112907409668 -1.44703197479248 13.8917179107666 -1.94666314125061 C 13.14453506469727 -1.377563238143921 12.20112609863281 -1.064286470413208 11.18116092681885 -1.064286470413208 L 9.309389114379883 -1.064286470413208 C 8.264861106872559 -1.064286470413208 7.330671787261963 -1.375974655151367 6.583002090454102 -1.940010190010071 C 5.845535278320312 -1.38587474822998 4.914076805114746 -1.064286470413208 3.877603769302368 -1.064286470413208 L 2.042532444000244 -1.064286470413208 C -0.4758675694465637 -1.064286470413208 -2.374996185302734 -2.963414907455444 -2.374996185302734 -5.481814861297607 L -2.374996185302734 -23.83247184753418 C -2.374996185302734 -26.35087203979492 -0.4758675694465637 -28.25 2.042532444000244 -28.25 L 8.465261459350586 -28.25 C 11.14227485656738 -28.25 12.77310371398926 -27.18110084533691 13.66978931427002 -26.28440093994141 C 14.3678731918335 -25.58632850646973 15.17032814025879 -24.44328308105469 15.49155902862549 -22.70810127258301 L 19.47564697265625 -22.70810127258301 C 21.04764175415039 -22.70810127258301 22.25889587402344 -22.33950805664062 23.17256927490234 -21.85364723205566 C 23.49178886413574 -22.09653472900391 23.84780693054199 -22.29556465148926 24.23344612121582 -22.44346046447754 L 24.23344612121582 -23.83247184753418 C 24.23344612121582 -26.35087203979492 26.13257598876953 -28.25 28.65097618103027 -28.25 L 30.48603248596191 -28.25 C 33.00444793701172 -28.25 34.9035758972168 -26.35087203979492 34.9035758972168 -23.83247184753418 L 34.9035758972168 -22.44345474243164 C 35.27777481079102 -22.29994583129883 35.62410354614258 -22.10827445983887 35.93597030639648 -21.87512016296387 C 36.85289764404297 -22.36846542358398 38.07302856445312 -22.74480056762695 39.66136169433594 -22.74480056762695 L 41.49643325805664 -22.74480056762695 C 42.32123184204102 -22.74480056762695 43.04681777954102 -22.6433048248291 43.6821174621582 -22.47666549682617 L 43.57756805419922 -23.2342700958252 C 43.37015533447266 -24.53589057922363 43.6954345703125 -25.774658203125 44.49771881103516 -26.73091506958008 C 45.31958770751953 -27.71051406860352 46.52163314819336 -28.25 47.8824462890625 -28.25 L 49.64411926269531 -28.25 C 50.72105026245117 -28.25 51.70042037963867 -27.91970252990723 52.48757553100586 -27.29299926757812 C 53.24757385253906 -27.90000534057617 54.21907043457031 -28.25 55.29611968994141 -28.25 L 57.13117599487305 -28.25 C 57.7830924987793 -28.25 58.39860534667969 -28.12617301940918 58.95330810546875 -27.88947105407715 C 59.50060653686523 -28.12239456176758 60.11179351806641 -28.25 60.76460266113281 -28.25 L 62.59967422485352 -28.25 C 63.26201629638672 -28.25 63.88134765625 -28.11871337890625 64.43473815917969 -27.87927436828613 C 64.98812866210938 -28.11871337890625 65.60746002197266 -28.25 66.26980590820312 -28.25 L 68.1048583984375 -28.25 C 68.76720428466797 -28.25 69.38653564453125 -28.11871337890625 69.93992614746094 -27.87927436828613 C 70.49331665039062 -28.11871337890625 71.11264801025391 -28.25 71.77498626708984 -28.25 L 73.61006164550781 -28.25 C 76.12846374511719 -28.25 78.027587890625 -26.35087203979492 78.027587890625 -23.83247184753418 L 78.027587890625 -22.70810127258301 L 81.86784362792969 -22.70810127258301 C 84.54486083984375 -22.70810127258301 86.17568969726562 -21.63920021057129 87.0723876953125 -20.74250030517578 C 87.96907806396484 -19.84580039978027 89.03797149658203 -18.21498680114746 89.03797149658203 -15.53797245025635 L 89.03797149658203 -4.747786521911621 C 89.03797149658203 -3.759657859802246 88.65599060058594 -2.83347225189209 87.96238708496094 -2.139872074127197 C 87.26879119873047 -1.446272134780884 86.34260559082031 -1.064286470413208 85.35447692871094 -1.064286470413208 Z" stroke="none" fill="#fff"/>
      </g>
      <g id="home_1_" data-name="home (1)" transform="translate(223.192 51.853)">
        <g id="Group_33" data-name="Group 33" transform="translate(0 0)">
          <g id="Group_32" data-name="Group 32" transform="translate(0 0)">
            <g id="Path_13" data-name="Path 13" transform="translate(0 -12.675)" fill="#e5000e" stroke-linecap="round">
              <path d="M 19.80720710754395 36.63729476928711 L 14.06048774719238 36.63729476928711 C 12.90353202819824 36.63729476928711 11.93226051330566 35.8269157409668 11.6844425201416 34.74399948120117 C 11.43662548065186 35.82690811157227 10.46536350250244 36.63724517822266 9.308407783508301 36.63724517822266 L 3.561417579650879 36.63724517822266 C 2.217527627944946 36.63724517822266 1.124187588691711 35.54390335083008 1.124187588691711 34.20001220703125 L 1.124187588691711 26.37695121765137 C -0.07147199660539627 26.34738922119141 -1.115661382675171 25.61515045166016 -1.549772381782532 24.49451446533203 C -1.99296236038208 23.35013389587402 -1.693272352218628 22.07676315307617 -0.7863123416900635 21.25030326843262 L 9.69859790802002 11.69645404815674 C 10.24396800994873 11.19936370849609 10.94924736022949 10.92550373077393 11.68430805206299 10.92550373077393 C 12.41933727264404 10.92550373077393 13.1246280670166 11.19934368133545 13.67025756835938 11.69658374786377 L 24.15499687194824 21.25023460388184 C 25.06163787841797 22.07651329040527 25.36151695251465 23.34957313537598 24.9190673828125 24.49361419677734 C 24.48452758789062 25.61523246765137 23.44014358520508 26.34748458862305 22.24443817138672 26.3769588470459 L 22.24443817138672 34.20005416870117 C 22.24443817138672 35.54395294189453 21.15109825134277 36.63729476928711 19.80720710754395 36.63729476928711 Z" stroke="none"/>
              <path d="M 11.68431186676025 12.67549896240234 C 11.39578533172607 12.67549896240234 11.1072826385498 12.78033828735352 10.87726783752441 12.98999404907227 L 0.3923873901367188 22.54381370544434 C 0.02373695373535156 22.8797435760498 -0.09803199768066406 23.3973331451416 0.08206748962402344 23.86237335205078 C 0.2622184753417969 24.32742309570312 0.7008380889892578 24.62788391113281 1.199567794799805 24.62788391113281 L 2.874187469482422 24.62788391113281 L 2.874187469482422 34.20001220703125 C 2.874187469482422 34.57952499389648 3.18189811706543 34.88724517822266 3.561418533325195 34.88724517822266 L 9.308407783508301 34.88724517822266 C 9.687917709350586 34.88724517822266 9.995637893676758 34.57957458496094 9.995637893676758 34.20001220703125 L 9.995637893676758 28.38812446594238 L 13.37325763702393 28.38812446594238 L 13.37325763702393 34.20005416870117 C 13.37325763702393 34.57957458496094 13.6809778213501 34.88729476928711 14.06048774719238 34.88729476928711 L 19.80720710754395 34.88729476928711 C 20.18671798706055 34.88729476928711 20.49443817138672 34.57961273193359 20.49443817138672 34.20005416870117 L 20.49443817138672 24.62788391113281 L 22.16936683654785 24.62788391113281 C 22.66805839538574 24.62788391113281 23.10672760009766 24.32737350463867 23.28687858581543 23.86237335205078 C 23.46674728393555 23.39728355407715 23.34497833251953 22.8797435760498 22.97632789611816 22.54377365112305 L 12.49149799346924 12.99004364013672 C 12.26138782501221 12.78033828735352 11.97283744812012 12.67549896240234 11.68431186676025 12.67549896240234 M 11.68430805206299 9.175495147705078 C 12.85643768310547 9.175495147705078 13.98035717010498 9.611484527587891 14.84904766082764 10.40316390991211 L 25.33365821838379 19.95669364929199 C 26.77841758728027 21.27337455749512 27.25625801086426 23.30191421508789 26.5512580871582 25.12484359741211 C 26.07676887512207 26.34958839416504 25.14613151550293 27.28298759460449 23.99443817138672 27.76448440551758 L 23.99443817138672 34.20005416870117 C 23.99443817138672 36.50890350341797 22.11605834960938 38.38729476928711 19.80720710754395 38.38729476928711 L 14.06048774719238 38.38729476928711 C 13.1788854598999 38.38729476928711 12.35988521575928 38.11331558227539 11.68441390991211 37.64619064331055 C 11.00894260406494 38.11331176757812 10.19000911712646 38.38724517822266 9.308407783508301 38.38724517822266 L 3.561418533325195 38.38724517822266 C 1.252567291259766 38.38724517822266 -0.6258125305175781 36.50886535644531 -0.6258125305175781 34.20001220703125 L -0.6258125305175781 27.76441955566406 C -1.777326583862305 27.28300857543945 -2.707696914672852 26.35004425048828 -3.181612014770508 25.12665367126465 C -3.887882232666016 23.30297470092773 -3.41029167175293 21.2738037109375 -1.965011596679688 19.95679473876953 L 8.519927978515625 10.40292358398438 C 9.388107299804688 9.611553192138672 10.5120677947998 9.175495147705078 11.68430805206299 9.175495147705078 Z" stroke="none" fill="#fff"/>
            </g>
          </g>
        </g>
        <g id="Group_35" data-name="Group 35" transform="translate(15.7 1.372)">
          <g id="Group_34" data-name="Group 34" transform="translate(0 0)">
            <g id="Path_14" data-name="Path 14" transform="translate(-343.973 -42.73)" fill="#e5000e" stroke-linecap="round">
              <path d="M 351.0255126953125 51.50797271728516 L 348.0982055664062 48.84624099731445 L 342.7956848144531 44.0247802734375 L 339.4471130371094 40.98000335693359 L 343.9729919433594 40.98000335693359 L 348.5882873535156 40.98000335693359 C 349.9321899414062 40.98000335693359 351.0255126953125 42.07332229614258 351.0255126953125 43.41719055175781 L 351.0255126953125 47.55146026611328 L 351.0255126953125 51.50797271728516 Z" stroke="none"/>
              <path d="M 343.9729919433594 42.73000335693359 L 349.2755126953125 47.55146026611328 L 349.2755126953125 43.41718292236328 C 349.2755126953125 43.03767013549805 348.9678344726562 42.73000335693359 348.5882873535156 42.73000335693359 L 343.9729919433594 42.73000335693359 M 334.9212341308594 39.23000335693359 L 343.9729919433594 39.23000335693359 L 348.5882873535156 39.23000335693359 C 350.8971252441406 39.23000335693359 352.7755126953125 41.10836029052734 352.7755126953125 43.41718292236328 L 352.7755126953125 47.55146026611328 L 352.7755126953125 55.46448135375977 L 346.9208984375 50.14101028442383 L 341.6183776855469 45.31955337524414 L 334.9212341308594 39.23000335693359 Z" stroke="none" fill="#fff"/>
            </g>
          </g>
        </g>
      </g>
    </g>
  </g>
</svg>
