<svg xmlns="http://www.w3.org/2000/svg" width="116.704" height="26.846" viewBox="0 0 116.704 26.846">
  <g id="Group_135" data-name="Group 135" transform="translate(-1660 -34)">
    <path id="Path_83" data-name="Path 83" d="M478.427,68.775h-3.77l-1.329,7.608h-3.35l3.431-19.745,6.225.014a7.1,7.1,0,0,1,4.923,1.546,4.906,4.906,0,0,1,1.478,4.3,5.937,5.937,0,0,1-1.275,3.322,7.448,7.448,0,0,1-3.16,2.2l2.916,8.164-.014.2h-3.553Zm-3.309-2.753,3.241.027a4.6,4.6,0,0,0,2.916-.909,3.626,3.626,0,0,0,1.383-2.5,2.779,2.779,0,0,0-.542-2.346,3.053,3.053,0,0,0-2.265-.882l-3.58-.014Zm18.553,10.361a4.35,4.35,0,0,1-.136-1.37,5.441,5.441,0,0,1-3.919,1.641,4.533,4.533,0,0,1-3.173-1.221,3.814,3.814,0,0,1-1.166-3.051,4.493,4.493,0,0,1,2.007-3.648,8.738,8.738,0,0,1,5.1-1.329l2.088.027.19-1a3.031,3.031,0,0,0,0-.99,1.766,1.766,0,0,0-1.939-1.505,2.929,2.929,0,0,0-1.817.529,2.242,2.242,0,0,0-.949,1.465l-3.214.027a3.992,3.992,0,0,1,.963-2.373,5.676,5.676,0,0,1,2.305-1.6,7.8,7.8,0,0,1,3.038-.542,5.118,5.118,0,0,1,3.743,1.451,4.262,4.262,0,0,1,1.112,3.594l-1.126,6.876-.108,1.221a4.334,4.334,0,0,0,.2,1.56l-.014.244Zm-3.309-2.36a3.579,3.579,0,0,0,1.885-.461,5.054,5.054,0,0,0,1.478-1.288l.5-2.78-1.532-.014a5.344,5.344,0,0,0-2.9.692,2.492,2.492,0,0,0-1.234,1.871,1.691,1.691,0,0,0,.393,1.438A2,2,0,0,0,490.362,74.023Zm14.851-15.88-.624,3.567H507.1l-.42,2.441h-2.522l-1.383,8.218a2.812,2.812,0,0,0-.013.61q.081.882,1.085.922a6.126,6.126,0,0,0,1.139-.122l-.217,2.577a7.369,7.369,0,0,1-2.021.285,3.028,3.028,0,0,1-2.522-1.139,4.192,4.192,0,0,1-.651-2.97l1.37-8.381H498.6l.434-2.441h2.333l.624-3.567Zm7.447,0-.624,3.567h2.509l-.42,2.441H511.6l-1.383,8.218a2.812,2.812,0,0,0-.014.61q.081.882,1.085.922a6.124,6.124,0,0,0,1.139-.122l-.217,2.577a7.369,7.369,0,0,1-2.021.285,3.028,3.028,0,0,1-2.522-1.139,4.193,4.193,0,0,1-.651-2.97l1.37-8.381h-2.346l.434-2.441h2.333l.624-3.567Zm6.89,18.511a6.183,6.183,0,0,1-3.322-.963,5.533,5.533,0,0,1-2.075-2.522,7.554,7.554,0,0,1-.5-3.567l.041-.556a9.829,9.829,0,0,1,1.3-4.014,7.5,7.5,0,0,1,2.658-2.712,6.448,6.448,0,0,1,3.445-.881,4.793,4.793,0,0,1,4.123,2.048,7.486,7.486,0,0,1,1.044,5.194l-.19,1.41h-9.235a4.008,4.008,0,0,0,.706,2.821,2.789,2.789,0,0,0,2.278,1.1,4.941,4.941,0,0,0,3.824-1.8l1.628,1.709a6.243,6.243,0,0,1-2.428,2.048A7.286,7.286,0,0,1,519.55,76.654Zm1.37-12.585q-2.549-.081-3.824,3.607l6.088.014.055-.285a4.28,4.28,0,0,0,.013-1.221,2.5,2.5,0,0,0-.759-1.519A2.4,2.4,0,0,0,520.92,64.069Zm8.328,12.314h-3.214l3.621-20.83h3.214Zm7.691-4.746,4.611-9.927H545.1L536.41,78.918q-1.817,3.472-4.787,3.431a7.85,7.85,0,0,1-1.668-.271l.272-2.55.583.054a3.277,3.277,0,0,0,1.925-.448,3.625,3.625,0,0,0,1.275-1.492l.773-1.519-2.455-14.416h3.336Z" transform="translate(1231.601 -21.504)" fill="#fff"/>
    <g id="Group_132" data-name="Group 132" transform="translate(1660 34)">
      <path id="Path_88" data-name="Path 88" d="M2.532,0H28.786a2.532,2.532,0,1,1,0,5.065H2.532A2.532,2.532,0,0,1,2.532,0Z" transform="translate(6.254 0.281)" fill="#f7c7cc"/>
      <path id="Path_89" data-name="Path 89" d="M2.374,0H20.5a2.374,2.374,0,0,1,0,4.748H2.374A2.374,2.374,0,0,1,2.374,0Z" transform="translate(6.412 0.439)" fill="#e5000e" stroke="#fff" stroke-width="0.58"/>
      <path id="Path_85" data-name="Path 85" d="M2.532,0H28.786a2.532,2.532,0,1,1,0,5.065H2.532A2.532,2.532,0,0,1,2.532,0Z" transform="translate(6.254 9.267)" fill="#f7c7cc"/>
      <path id="Path_86" data-name="Path 86" d="M2.374,0h8.486a2.374,2.374,0,0,1,0,4.748H2.374A2.374,2.374,0,0,1,2.374,0Z" transform="translate(6.412 9.425)" fill="#e5000e" stroke="#fcfcfe" stroke-width="0.58"/>
      <path id="Path_90" data-name="Path 90" d="M2.809,0A2.809,2.809,0,1,1,0,2.809,2.809,2.809,0,0,1,2.809,0Z" fill="#e5000e"/>
      <path id="Path_91" data-name="Path 91" d="M2.809,0A2.809,2.809,0,1,1,0,2.809,2.809,2.809,0,0,1,2.809,0Z" transform="translate(0 8.741)" fill="#e5000e"/>
      <path id="Path_92" data-name="Path 92" d="M2.809,0A2.809,2.809,0,1,1,0,2.809,2.809,2.809,0,0,1,2.809,0Z" transform="translate(0 18.106)" fill="#e5000e"/>
      <path id="Path_84" data-name="Path 84" d="M2.532,0H28.786a2.532,2.532,0,1,1,0,5.065H2.532A2.532,2.532,0,0,1,2.532,0Z" transform="translate(6.254 18.24)" fill="#f7c7cc"/>
      <path id="Path_87" data-name="Path 87" d="M2.374,0H6.042a2.374,2.374,0,1,1,0,4.748H2.374A2.374,2.374,0,0,1,2.374,0Z" transform="translate(6.412 18.399)" fill="#e5000e" stroke="#fff" stroke-width="0.58"/>
    </g>
  </g>
</svg>
