<svg xmlns="http://www.w3.org/2000/svg" width="97.588" height="22.449" viewBox="0 0 97.588 22.449">
  <g id="Group_174" data-name="Group 174" transform="translate(-1660 -34)">
    <path id="Path_83" data-name="Path 83" d="M477.043,66.609H473.89l-1.111,6.362h-2.8l2.869-16.511,5.2.011a5.933,5.933,0,0,1,4.116,1.293,4.1,4.1,0,0,1,1.236,3.595,4.964,4.964,0,0,1-1.066,2.778,6.228,6.228,0,0,1-2.642,1.837l2.438,6.827-.011.17h-2.971Zm-2.767-2.3,2.71.023a3.847,3.847,0,0,0,2.438-.76,3.032,3.032,0,0,0,1.157-2.087,2.323,2.323,0,0,0-.454-1.962,2.553,2.553,0,0,0-1.894-.737l-2.994-.011ZM489.79,72.97a3.638,3.638,0,0,1-.113-1.145A4.55,4.55,0,0,1,486.4,73.2a3.791,3.791,0,0,1-2.654-1.021,3.189,3.189,0,0,1-.975-2.551,3.757,3.757,0,0,1,1.678-3.05,7.307,7.307,0,0,1,4.264-1.111l1.746.023.159-.839a2.533,2.533,0,0,0,0-.828A1.477,1.477,0,0,0,489,62.561a2.45,2.45,0,0,0-1.52.442,1.875,1.875,0,0,0-.794,1.225L484,64.25a3.338,3.338,0,0,1,.805-1.984,4.746,4.746,0,0,1,1.928-1.338,6.526,6.526,0,0,1,2.54-.454,4.279,4.279,0,0,1,3.13,1.213,3.563,3.563,0,0,1,.93,3.005l-.941,5.749-.091,1.021a3.624,3.624,0,0,0,.17,1.3l-.011.2ZM487.023,71a2.993,2.993,0,0,0,1.576-.386,4.226,4.226,0,0,0,1.236-1.077l.42-2.325-1.281-.011a4.468,4.468,0,0,0-2.427.578,2.084,2.084,0,0,0-1.032,1.565,1.414,1.414,0,0,0,.329,1.2A1.669,1.669,0,0,0,487.023,71Zm12.418-13.279L498.92,60.7h2.1l-.352,2.041h-2.109L497.4,69.614a2.347,2.347,0,0,0-.011.51q.068.737.907.771a5.122,5.122,0,0,0,.953-.1l-.181,2.155a6.162,6.162,0,0,1-1.69.238,2.532,2.532,0,0,1-2.109-.953,3.506,3.506,0,0,1-.544-2.483l1.145-7.008h-1.962l.363-2.041h1.95l.522-2.982Zm6.227,0-.522,2.982h2.1l-.352,2.041h-2.109l-1.157,6.872a2.355,2.355,0,0,0-.011.51q.068.737.907.771a5.121,5.121,0,0,0,.953-.1l-.181,2.155a6.162,6.162,0,0,1-1.69.238,2.532,2.532,0,0,1-2.109-.953,3.506,3.506,0,0,1-.544-2.483l1.145-7.008h-1.962L500.5,60.7h1.951l.522-2.982ZM511.43,73.2a5.17,5.17,0,0,1-2.778-.805,4.627,4.627,0,0,1-1.735-2.109,6.317,6.317,0,0,1-.42-2.982l.034-.465a8.218,8.218,0,0,1,1.089-3.357,6.276,6.276,0,0,1,2.222-2.268,5.392,5.392,0,0,1,2.881-.737,4.008,4.008,0,0,1,3.447,1.712,6.26,6.26,0,0,1,.873,4.343l-.159,1.179h-7.722a3.352,3.352,0,0,0,.59,2.359,2.332,2.332,0,0,0,1.9.919,4.132,4.132,0,0,0,3.2-1.508l1.361,1.429a5.22,5.22,0,0,1-2.03,1.712A6.093,6.093,0,0,1,511.43,73.2Zm1.145-10.523q-2.132-.068-3.2,3.016l5.091.011.046-.238a3.58,3.58,0,0,0,.011-1.021,2.088,2.088,0,0,0-.635-1.27A2.011,2.011,0,0,0,512.576,62.674Zm6.964,10.3h-2.688l3.028-17.418h2.688ZM525.971,69l3.856-8.3H532.8l-7.269,14.39q-1.519,2.9-4,2.869a6.564,6.564,0,0,1-1.395-.227l.227-2.132.488.045a2.74,2.74,0,0,0,1.61-.374,3.031,3.031,0,0,0,1.066-1.247l.647-1.27L522.115,60.7h2.79Z" transform="translate(1224.79 -21.512)"/>
    <g id="Group_132" data-name="Group 132" transform="translate(1660 34)">
      <path id="Path_88" data-name="Path 88" d="M2.118,0H24.071a2.118,2.118,0,1,1,0,4.235H2.118A2.118,2.118,0,0,1,2.118,0Z" transform="translate(5.23 0.235)" fill="rgba(229,0,14,0.21)"/>
      <path id="Path_89" data-name="Path 89" d="M1.985,0H17.14a1.985,1.985,0,0,1,0,3.971H1.985A1.985,1.985,0,0,1,1.985,0Z" transform="translate(5.362 0.367)" fill="#e5000e" stroke="#fff" stroke-width="0.58"/>
      <path id="Path_85" data-name="Path 85" d="M2.118,0H24.071a2.118,2.118,0,1,1,0,4.235H2.118A2.118,2.118,0,0,1,2.118,0Z" transform="translate(5.23 7.749)" fill="#f7c7cc"/>
      <path id="Path_86" data-name="Path 86" d="M1.985,0h7.1a1.985,1.985,0,1,1,0,3.971h-7.1A1.985,1.985,0,0,1,1.985,0Z" transform="translate(5.362 7.882)" fill="#e5000e" stroke="#fcfcfe" stroke-width="0.58"/>
      <path id="Path_90" data-name="Path 90" d="M2.349,0A2.349,2.349,0,1,1,0,2.349,2.349,2.349,0,0,1,2.349,0Z" fill="#e5000e"/>
      <path id="Path_91" data-name="Path 91" d="M2.349,0A2.349,2.349,0,1,1,0,2.349,2.349,2.349,0,0,1,2.349,0Z" transform="translate(0 7.309)" fill="#e5000e"/>
      <path id="Path_92" data-name="Path 92" d="M2.349,0A2.349,2.349,0,1,1,0,2.349,2.349,2.349,0,0,1,2.349,0Z" transform="translate(0 15.14)" fill="#e5000e"/>
      <path id="Path_84" data-name="Path 84" d="M2.118,0H24.071a2.118,2.118,0,1,1,0,4.235H2.118A2.118,2.118,0,0,1,2.118,0Z" transform="translate(5.23 15.253)" fill="#f7c7cc"/>
      <path id="Path_87" data-name="Path 87" d="M1.985,0H5.053a1.985,1.985,0,1,1,0,3.971H1.985A1.985,1.985,0,0,1,1.985,0Z" transform="translate(5.362 15.385)" fill="#e5000e" stroke="#fff" stroke-width="0.58"/>
    </g>
  </g>
</svg>
